{"title":"TVF Tripling","uid":15938131,"size":2976877972,"categoryP":"video","categoryS":"hd___tv_shows","magnet":"?xt=urn:btih:3557a7613965b12a52a879bc9a28f60e7e0776be&amp;dn=TVF+Tripling&amp;tr=udp%3A%2F%2Ftracker.leechers-paradise.org%3A6969&amp;tr=udp%3A%2F%2Fzer0day.ch%3A1337&amp;tr=udp%3A%2F%2Fopen.demonii.com%3A1337&amp;tr=udp%3A%2F%2Ftracker.coppersurfer.tk%3A6969&amp;tr=udp%3A%2F%2Fexodus.desync.com%3A6969","seeders":0,"leechers":3,"uploader":"saini08","files":10,"time":1475423094,"description":"Divorced, jobless, hopeless. Three siblings plan a road trip together. Chandan, Chanchal &amp; Chitvan. Together they start a hilarious journey, to find themselves and their relations.\r\n\r\nGeneral\r\nComplete name                            : TVF Tripling S01E01 1080p.mp4\r\nFormat                                   : MPEG-4\r\nFormat profile                           : Base Media\r\nCodec ID                                 : isom (isom/iso2/avc1/mp41)\r\nFile size                                : 482 MiB\r\nDuration                                 : 21 min 37 s\r\nOverall bit rate                         : 3 117 kb/s\r\nWriting application                      : Lavf57.32.100\r\n\r\nVideo\r\nID                                       : 1\r\nFormat                                   : AVC\r\nFormat/Info                              : Advanced Video Codec\r\nFormat profile                           :   \r\nFormat settings, CABAC                   : Yes\r\nFormat settings, ReFrames                : 3 frames\r\nCodec ID                                 : avc1\r\nCodec ID/Info                            : Advanced Video Coding\r\nDuration                                 : 21 min 37 s\r\nBit rate                                 : 2 984 kb/s\r\nWidth                                    : 1 920 pixels\r\nHeight                                   : 1 080 pixels\r\nDisplay aspect ratio                     : 16:9\r\nFrame rate mode                          : Constant\r\nFrame rate                               : 25.000 FPS\r\nColor space                              : YUV\r\nChroma subsampling                       : 4:2:0\r\nBit depth                                : 8 bits\r\nScan type                                : Progressive\r\nBits/(Pixel*Frame)                       : 0.058\r\nStream size                              : 462 MiB (96%)\r\nWriting library                          : Zencoder Video Encoding System\r\nColor range                              : Limited\r\nColor primaries                          : BT.709\r\nTransfer characteristics                 : BT.709\r\nMatrix coefficients                      : BT.709\r\n\r\nAudio\r\nID                                       : 2\r\nFormat                                   : AAC\r\nFormat/Info                              : Advanced Audio Codec\r\nFormat profile                           : LC\r\nCodec ID                                 : 40\r\nDuration                                 : 21 min 37 s\r\nBit rate mode                            : Constant\r\nBit rate                                 : 128 kb/s\r\nChannel(s)                               : 2 channels\r\nChannel positions                        : Front: L R\r\nSampling rate                            : 44.1 kHz\r\nFrame rate                               : 43.066 FPS (1024 spf)\r\nCompression mode                         : Lossy\r\nStream size                              : 19.8 MiB (4%)\r\nDefault                                  : Yes\r\nAlternate group                          : 1","torrent":{"xt":"urn:btih:3557a7613965b12a52a879bc9a28f60e7e0776be","amp;dn":"TVF+Tripling","amp;tr":["udp%3A%2F%2Ftracker.leechers-paradise.org%3A6969","udp%3A%2F%2Fzer0day.ch%3A1337","udp%3A%2F%2Fopen.demonii.com%3A1337","udp%3A%2F%2Ftracker.coppersurfer.tk%3A6969","udp%3A%2F%2Fexodus.desync.com%3A6969"],"infoHash":"3557a7613965b12a52a879bc9a28f60e7e0776be","infoHashBuffer":{"type":"Buffer","data":[53,87,167,97,57,101,177,42,82,168,121,188,154,40,246,14,126,7,118,190]},"announce":[],"urlList":[]}}